<?xml version="1.0" ?><!DOCTYPE svg  PUBLIC '-//W3C//DTD SVG 1.1//EN'  'http://www.w3.org/Graphics/SVG/1.1/DTD/svg11.dtd'><svg height="2048px" style="shape-rendering:geometricPrecision; text-rendering:geometricPrecision; image-rendering:optimizeQuality; fill-rule:evenodd; clip-rule:evenodd" version="1.1" viewBox="0 0 2048 2048" width="2048px" xml:space="preserve" xmlns="http://www.w3.org/2000/svg" xmlns:xlink="http://www.w3.org/1999/xlink"><defs><style type="text/css">
   <![CDATA[
    .fil2 {fill:none}
    .fil1 {fill:#B2215A}
    .fil0 {fill:#E74D89}
   ]]>
  </style></defs><g id="Layer_x0020_1"><g id="_336354320"><path class="fil0" d="M1024 307.901c396,0 716.401,320.399 716.401,715.801 0,395.398 -320.4,716.398 -716.401,716.398 -396,0 -716.398,-320.399 -716.398,-715.801 0,-395.398 320.398,-716.398 716.398,-716.398l0 0 0 0z" id="_336354704"/><path class="fil1" d="M1024 1791.1c-423.6,0 -768.001,-343.799 -768.001,-766.801 0,-423.597 344.4,-767.398 768.001,-767.398 423.6,0 768.001,343.801 768.001,766.801 0,422.999 -344.4,767.398 -768.001,767.398l0 0 0 0zm647.399 -662.399c-22.1988,-7.20001 -202.8,-60.6 -408.6,-28.1988 85.8024,235.199 120.6,427.199 127.201,466.798 147.599,-98.9989 252.599,-256.2 281.399,-438.599l0 0 0 0zm-391.199 499.199c-9.60001,-57.6 -48.0012,-258 -139.8,-496.799 -1.2,0.6 -3.00118,1.19882 -4.2,1.19882 -370.2,129.001 -502.8,385.201 -514.799,409.2 111,86.4001 250.798,138 402.599,138 90.6001,0.6 177.6,-17.9988 256.2,-51.6l0 0 0 0zm-743.401 -164.999c15.0012,-25.2012 195,-322.8 533.4,-432.6 8.40001,-3 17.4,-5.4 25.8,-7.79882 -16.2012,-37.2024 -34.2,-74.4012 -53.4,-111 -327.599,97.8001 -645.6,93.6001 -674.401,92.9989 0,6.60119 -0.598819,13.2 -0.598819,19.7988 0.598819,168.6 64.1989,322.203 169.199,438.602l0 0 0 0zm-154.799 -572.4c29.3988,0.601182 299.399,1.8 606.6,-79.7989 -108.601,-193.2 -226.2,-355.201 -243.001,-378.599 -184.2,86.3989 -321,255.598 -363.599,458.398l0 0 0 0zm488.4 -502.798c17.9988,23.9988 137.399,185.998 244.8,383.398 233.4,-87.6001 331.798,-219.599 343.799,-236.4 -115.801,-102.598 -268.2,-164.999 -435,-164.999 -52.7989,0 -104.401,6.59882 -153.599,18.0012l0 0 0 0zm661.201 222.599c-13.8024,18.6 -123.602,159.599 -366,258.599 14.9976,31.2012 29.9988,63.0012 43.7977,94.7989 4.80118,11.4024 9.60237,22.8024 14.4,33.6012 218.401,-27.6 435,16.7988 456.6,21.0012 -1.8,-154.2 -56.9989,-296.401 -148.798,-408l0 0 0 0z" id="_336355040"/></g></g><rect class="fil2" height="2048" width="2048"/></svg>